# Blender v2.64 (sub 0) OBJ File: ''
# www.blender.org
o Cube_Cube.001
v 1.361251 -0.755110 -1.071438
v 1.465542 -0.484689 0.309271
v 2.280161 -3.299772 -0.187126
v 1.889681 -3.739451 -1.660749
v -2.538595 -3.143209 0.048888
v -1.321103 -0.484689 0.581196
v -1.467021 -0.756466 -0.825737
v -2.421835 -3.543796 -1.406923
v -0.100712 -0.233739 -1.326943
v -0.338448 -4.998781 -1.285637
v 0.090522 -0.694611 0.623097
v 0.146400 -1.499943 0.995896
v 1.506964 -1.509376 0.463070
v -1.302779 -1.562180 0.715403
v 0.064856 -4.548262 1.415263
v 1.207189 -4.358665 1.530421
v -1.092309 -4.586330 1.183302
v 0.837263 4.369523 -0.579548
v 0.661880 3.711529 -0.185444
v 1.809437 3.537977 -0.557796
v 1.835763 3.850293 -0.779110
v -1.638529 3.701139 -0.250908
v -0.671771 3.711529 -0.120529
v -0.884556 4.370836 -0.671762
v -1.692877 4.025982 -0.450499
v -0.143545 3.551880 -1.765886
v -0.023646 4.234791 -1.194452
v 0.005709 3.416853 0.065891
v 0.114885 2.412894 0.882460
v 0.976041 2.332511 0.557802
v -0.792789 2.332511 0.730407
v 1.154635 2.938428 -0.339645
v -1.228444 2.860538 -0.402589
v 0.080342 0.915573 0.528464
v 0.674899 0.690188 0.290868
v -0.548933 0.690188 0.410291
v 1.008085 0.675956 -0.242351
v -0.978916 0.675956 -0.048457
v -0.140295 1.858386 -1.732581
v 1.361875 3.023704 -1.790079
v 0.841697 0.662374 -0.978650
v -0.059003 0.630644 -0.899518
v -0.958009 0.662374 -0.803032
v -2.021739 2.957057 -1.595594
v 0.972108 -0.409850 -1.083893
v -0.074128 -0.158827 -1.054513
v -1.129558 -0.361276 -0.854098
v 1.378881 -0.465481 0.131567
v -1.242794 -0.474186 0.412747
v 0.550192 -1.998808 0.537127
v 0.092298 -1.830836 0.593601
v -0.128468 -2.041860 -0.754106
v 0.166341 -2.364995 -0.685845
v -0.403121 -2.110543 0.474791
v -0.401932 -2.370352 -0.843392
v 1.414180 -1.468136 -1.118009
v -0.166806 -1.233909 -1.218408
v -1.649209 -1.363101 -0.832005
v 0.188750 -3.491226 -0.442376
v 0.816431 -2.994653 0.720254
v -0.759902 -3.155265 0.497966
v -0.602794 -3.500133 -0.868812
v 1.458034 -2.858990 -0.997624
v -1.890197 -2.681037 -0.883173
v 1.195606 -4.218431 -0.426279
v 0.490653 -4.318969 -0.174961
v -1.044354 -4.308196 -0.749564
v -1.767705 -4.089914 -0.716019
v 1.873539 2.332228 -1.024101
v 2.455396 2.811137 -1.296396
v -2.386098 3.006137 0.038842
v -1.718272 2.564470 0.007325
v 1.595377 2.937559 -2.127724
v -2.482958 2.452164 -1.024387
v 1.048783 2.558289 -1.490672
v -1.585311 2.277495 -0.914078
v 0.092711 -1.027997 0.478191
v 0.831834 -0.729256 0.175756
v -0.704980 -0.753941 0.323777
v 1.632174 -2.797756 0.664448
v 1.521615 -1.570485 0.342585
v -1.354669 -1.609903 0.598304
v 0.442074 4.303141 0.679109
v 0.326177 4.181507 0.287679
v 0.554517 4.804155 -0.211771
v 0.689586 5.350536 0.007340
v -0.601810 4.804155 -0.211771
v -0.373469 4.181507 0.287679
v -0.489367 4.303141 0.679109
v -0.736878 5.350536 0.007340
v -0.023646 4.608706 -0.904622
v -0.023646 5.460351 -0.645996
v 0.667757 5.788576 -0.036030
v 0.522225 5.413737 0.931594
v -0.715049 5.788576 -0.036030
v -0.569517 5.413737 0.931594
v -0.023646 6.135972 0.035179
v -0.023646 3.927320 1.201194
v -0.023646 4.209323 0.406472
v -0.023646 5.502624 1.115900
v 0.614884 6.074446 0.358721
v 0.384536 6.135432 0.504930
v -0.662176 6.074446 0.358721
v -0.431829 6.135432 0.504930
v 0.256614 6.281952 0.266307
v -0.303907 6.281952 0.266307
v 0.535342 6.123566 0.132031
v -0.582634 6.123566 0.132031
v 0.444539 7.085514 1.183470
v 0.557343 7.011436 1.370074
v -0.491831 7.085514 1.183470
v -0.604636 7.011436 1.370074
v 0.218477 6.997943 1.305136
v -0.265770 6.997943 1.305136
v 0.439346 6.891002 1.490414
v -0.486638 6.891002 1.490414
v 0.622540 8.686172 2.293432
v -0.669832 8.686172 2.293432
v 1.294726 1.373948 -2.429146
v 0.684820 3.759186 -1.942454
v -1.396580 1.383800 -2.472187
v -0.950167 3.759186 -1.792155
v 1.143369 4.176147 0.275535
v 1.625524 3.640673 -0.001971
v 1.890505 4.533549 -1.172242
v 0.894210 4.945760 -0.928211
v 2.210784 3.490015 -0.280506
v 2.989908 4.332596 -1.417303
v 0.984374 3.667201 -1.749669
v 0.393973 4.069775 -1.665566
v 1.863714 3.556711 -1.761555
v -2.166302 3.490015 0.146617
v -1.538236 3.640673 0.306754
v -2.024458 4.533549 -0.790214
v -3.150497 4.332596 -0.818113
v -1.011530 4.176147 0.485813
v -0.999782 4.945760 -0.743393
v -1.247186 3.667201 -1.533107
v -2.181749 3.497010 -1.237578
v -0.651528 4.069775 -1.563545
vt 0.174008 0.406637
vt 0.177068 0.461677
vt 0.064480 0.411313
vt 0.064454 0.357042
vt 0.064476 0.411318
vt 0.177068 0.461682
vt 0.174007 0.406641
vt 0.064449 0.357045
vt 0.221764 0.360107
vt 0.064446 0.263506
vt 0.221764 0.360108
vt 0.064439 0.263506
vt 0.166733 0.516915
vt 0.125154 0.516921
vt 0.131263 0.463415
vt 0.131262 0.463421
vt 0.010612 0.516914
vt 0.011087 0.490268
vt 0.011086 0.490277
vt 0.445652 0.673201
vt 0.451940 0.646909
vt 0.485395 0.662554
vt 0.467259 0.686815
vt 0.358911 0.659790
vt 0.392451 0.646736
vt 0.405102 0.680455
vt 0.376867 0.682927
vt 0.694475 0.606745
vt 0.670751 0.613813
vt 0.674502 0.552933
vt 0.698703 0.570985
vt 0.170898 0.553774
vt 0.175153 0.614618
vt 0.148326 0.608062
vt 0.146848 0.572026
vt 0.422237 0.632829
vt 0.422487 0.574861
vt 0.454304 0.568334
vt 0.390720 0.568051
vt 0.501849 0.582275
vt 0.343165 0.581371
vt 0.422644 0.509392
vt 0.461775 0.501404
vt 0.383492 0.501228
vt 0.491402 0.485010
vt 0.353760 0.484873
vt 0.615638 0.507435
vt 0.566227 0.561810
vt 0.535277 0.485058
vt 0.586062 0.461820
vt 0.309719 0.485003
vt 0.278810 0.561733
vt 0.229414 0.507831
vt 0.258884 0.462017
vt 0.536845 0.429700
vt 0.584370 0.433847
vt 0.308064 0.429744
vt 0.260520 0.434012
vt 0.487523 0.420928
vt 0.357418 0.420926
vt 0.445630 0.331659
vt 0.422414 0.341216
vt 0.422393 0.248331
vt 0.437554 0.245897
vt 0.399189 0.331688
vt 0.407231 0.245903
vt 0.539025 0.384521
vt 0.594096 0.401462
vt 0.250747 0.401614
vt 0.305829 0.384588
vt 0.601351 0.357538
vt 0.604967 0.370810
vt 0.239844 0.370952
vt 0.243452 0.357669
vt 0.471241 0.222340
vt 0.478133 0.289855
vt 0.366660 0.289889
vt 0.373529 0.222355
vt 0.555010 0.339566
vt 0.613818 0.320572
vt 0.230955 0.320690
vt 0.289792 0.339653
vt 0.583985 0.292145
vt 0.617597 0.290317
vt 0.227157 0.290423
vt 0.260781 0.292242
vt 0.514241 0.681652
vt 0.496508 0.714621
vt 0.349986 0.711806
vt 0.331207 0.679979
vt 0.655982 0.645038
vt 0.587258 0.610525
vt 0.257990 0.610817
vt 0.190242 0.645715
vt 0.532129 0.628501
vt 0.312492 0.627472
vt 0.422445 0.399995
vt 0.456427 0.413140
vt 0.388499 0.413108
vt 0.501063 0.320897
vt 0.484956 0.367477
vt 0.359891 0.367504
vt 0.483344 0.869080
vt 0.485648 0.836298
vt 0.523377 0.869438
vt 0.517188 0.908632
vt 0.339224 0.864848
vt 0.380873 0.833419
vt 0.379558 0.866557
vt 0.345124 0.907108
vt 0.578093 0.852206
vt 0.576479 0.905361
vt 0.284982 0.907019
vt 0.279617 0.852232
vt 0.525244 0.936817
vt 0.482034 0.952563
vt 0.337983 0.937076
vt 0.380564 0.951732
vt 0.566538 0.970134
vt 0.297859 0.973460
vt 0.432598 0.856930
vt 0.432598 0.828990
vt 0.432598 0.954150
vt 0.524748 0.828895
vt 0.589973 0.825789
vt 0.262219 0.826776
vt 0.331841 0.826686
vt 0.493000 0.806057
vt 0.376639 0.803963
vt 0.433068 0.798237
vt 0.499876 0.973260
vt 0.480486 0.984534
vt 0.365471 0.974747
vt 0.385789 0.985573
vt 0.432598 0.999856
vt 0.457964 0.999856
vt 0.409870 0.999856
vt 0.539735 0.985287
vt 0.522846 0.968338
vt 0.325941 0.988187
vt 0.342246 0.970095
vt 0.724026 0.256126
vt 0.706081 0.244130
vt 0.699612 0.380286
vt 0.720471 0.386197
vt 0.686901 0.263187
vt 0.675748 0.380754
vt 0.767140 0.262637
vt 0.738373 0.272176
vt 0.740890 0.385052
vt 0.767199 0.382489
vt 0.716261 0.544125
vt 0.607485 0.541954
vt 0.655621 0.576363
vt 0.237703 0.542248
vt 0.189926 0.577021
vt 0.005430 0.995061
vt 0.080511 0.995061
vt 0.074510 0.883140
vt 0.005430 0.883140
vt 0.159778 0.995061
vt 0.185814 0.883140
vt 0.080511 0.775809
vt 0.005430 0.775809
vt 0.159778 0.775809
vt 0.160158 0.995041
vt 0.080585 0.995041
vt 0.074645 0.882795
vt 0.186346 0.882795
vt 0.005286 0.995041
vt 0.005286 0.882795
vt 0.080585 0.775152
vt 0.160158 0.775152
vt 0.005286 0.775152
vn 0.560106 0.208960 -0.801630
vn 0.779473 0.323649 0.536332
vn 0.954314 0.255074 -0.155461
vn 0.418073 0.179601 -0.890439
vn -0.928861 0.369213 0.029084
vn -0.623432 0.352916 0.697684
vn -0.631367 0.295785 -0.716819
vn -0.519150 0.254372 -0.815943
vn -0.065401 0.076357 -0.994903
vn -0.066256 0.076693 -0.994842
vn 0.084078 0.271828 0.958647
vn 0.031404 0.230110 0.972625
vn 0.509842 0.207831 0.834742
vn -0.333750 0.156652 0.929533
vn -0.038484 0.185034 0.981964
vn 0.143681 0.233131 0.961760
vn -0.196173 0.137669 0.970824
vn 0.706961 0.702231 -0.083834
vn 0.556383 0.212622 0.803247
vn 0.536271 0.001129 0.844020
vn 0.677145 0.707602 0.201788
vn -0.026704 0.329997 0.943571
vn -0.503525 0.211646 0.837642
vn -0.627552 0.750145 -0.208289
vn -0.473098 0.856563 0.206061
vn -0.019745 0.521928 -0.852718
vn -0.008393 0.692496 -0.721335
vn 0.061617 0.220252 0.973479
vn 0.087741 0.202094 0.975402
vn 0.647542 0.083254 0.757439
vn -0.507920 0.091189 0.856533
vn 0.766015 -0.148869 0.625324
vn -0.466689 -0.268105 0.842769
vn 0.095553 -0.149663 0.984100
vn 0.582202 -0.046541 0.811670
vn -0.414014 -0.046113 0.909085
vn 0.976409 0.036866 0.212745
vn -0.897427 0.031526 0.440016
vn -0.030244 -0.420576 -0.906735
vn 0.332713 0.598559 -0.728690
vn 0.693106 -0.099063 -0.713981
vn -0.080264 -0.163305 -0.983276
vn -0.819727 -0.149419 -0.552873
vn -0.762413 0.130833 -0.633686
vn 0.569079 0.199835 -0.797601
vn -0.096835 0.126255 -0.987243
vn -0.725486 0.232185 -0.647877
vn 0.842250 0.284402 0.457930
vn -0.694815 0.278787 0.662923
vn -0.312021 -0.070925 0.947417
vn -0.008789 -0.348338 0.937315
vn 0.028535 -0.776696 -0.629200
vn -0.670522 -0.532975 -0.516007
vn 0.634785 -0.416791 0.650594
vn 0.533921 -0.411115 -0.738853
vn 0.655416 0.014069 -0.755120
vn -0.088473 -0.106388 -0.990356
vn -0.570116 0.126438 -0.811731
vn -0.670827 -0.279580 -0.686850
vn -0.538102 0.111118 0.835505
vn 0.962493 -0.246925 0.112339
vn 0.402722 -0.165654 -0.900174
vn 0.283151 -0.173315 -0.943266
vn -0.008240 -0.019105 -0.999756
vn -0.239326 -0.351390 -0.905087
vn -0.070223 -0.117832 -0.990539
vn 0.381359 -0.493149 0.781854
vn 0.871303 0.463057 0.162420
vn -0.587970 0.603839 0.538163
vn 0.516465 -0.053835 0.854579
vn 0.006684 0.815149 -0.579180
vn -0.558367 0.235450 -0.795434
vn -0.979705 0.078158 0.184454
vn 0.740135 -0.497787 -0.452071
vn 0.057863 0.075594 0.995453
vn 0.272195 0.143925 0.951384
vn -0.071047 0.096622 0.992767
vn 0.661245 0.210639 0.719932
vn 0.756737 0.256478 0.601245
vn -0.352794 0.290811 0.889340
vn 0.807092 -0.514542 0.289468
vn 0.770837 -0.487014 0.410627
vn 0.949889 0.122074 -0.287667
vn 0.955931 0.071139 -0.284768
vn -0.951933 0.123447 -0.280221
vn -0.768517 -0.490463 0.410840
vn -0.807092 -0.514542 0.289468
vn -0.955931 0.071139 -0.284768
vn 0.023865 0.617786 -0.785974
vn 0.000000 0.365276 -0.930876
vn 0.836055 0.332926 -0.436048
vn 0.779687 0.145024 0.609088
vn -0.836055 0.332926 -0.436048
vn -0.779687 0.145024 0.609088
vn 0.000000 0.864467 -0.502640
vn 0.000000 -0.697287 0.716788
vn 0.009278 -0.939421 0.342601
vn 0.000000 0.347056 0.937834
vn 0.962035 0.190313 0.195563
vn -0.158361 0.084658 0.983734
vn -0.962035 0.190313 0.195563
vn 0.158361 0.084658 0.983734
vn -0.513932 0.809900 -0.282662
vn 0.513932 0.809900 -0.282662
vn 0.587420 0.574450 -0.569994
vn -0.587420 0.574450 -0.569994
vn 0.322275 0.656636 -0.681845
vn 0.978027 -0.156590 0.137577
vn -0.322275 0.656636 -0.681845
vn -0.978027 -0.156590 0.137577
vn -0.990173 0.137638 -0.023682
vn 0.990173 0.137638 -0.023682
vn -0.080935 -0.616413 0.783227
vn 0.080935 -0.616413 0.783227
vn 0.109867 0.864589 0.490249
vn -0.109836 0.864589 0.490249
vn 0.604114 -0.723258 -0.334544
vn -0.035096 0.752159 -0.658040
vn -0.595416 -0.683981 -0.421430
vn 0.019318 0.732231 -0.680746
vn 0.588061 0.660665 0.466567
vn 0.486740 0.672231 0.557787
vn 0.360698 0.907071 -0.217048
vn 0.466903 0.832698 -0.297647
vn 0.344340 0.668752 0.658895
vn 0.270730 0.958953 -0.083987
vn 0.057344 0.534623 -0.843104
vn 0.106418 0.542741 -0.833094
vn -0.029725 0.516923 -0.855495
vn -0.210486 0.668752 0.713034
vn -0.369701 0.672231 0.641377
vn -0.433668 0.885006 -0.169317
vn -0.343303 0.934538 -0.093600
vn -0.486770 0.660665 0.571459
vn -0.515305 0.832942 -0.201544
vn -0.239174 0.498611 -0.833155
vn -0.190069 0.413190 -0.890561
vn -0.265145 0.543290 -0.796533
s 1
f 1/1/1 2/2/2 3/3/3
f 1/1/1 3/3/3 4/4/4
f 5/5/5 6/6/6 7/7/7
f 5/5/5 7/7/7 8/8/8
f 9/9/9 1/1/1 4/4/4
f 9/9/9 4/4/4 10/10/10
f 8/8/8 7/7/7 9/11/9
f 8/8/8 9/11/9 10/12/10
f 11/13/11 12/14/12 13/15/13
f 11/13/11 13/15/13 2/2/2
f 11/13/11 6/6/6 14/16/14
f 11/13/11 14/16/14 12/14/12
f 12/14/12 15/17/15 16/18/16
f 12/14/12 16/18/16 13/15/13
f 17/19/17 15/17/15 12/14/12
f 17/19/17 12/14/12 14/16/14
f 2/2/2 13/15/13 3/3/3
f 5/5/5 14/16/14 6/6/6
f 18/20/18 19/21/19 20/22/20
f 18/20/18 20/22/20 21/23/21
f 22/24/22 23/25/23 24/26/24
f 22/24/22 24/26/24 25/27/25
f 18/28/18 21/29/21 26/30/26
f 18/28/18 26/30/26 27/31/27
f 26/32/26 25/33/25 24/34/24
f 26/32/26 24/34/24 27/35/27
f 19/21/19 28/36/28 29/37/29
f 19/21/19 29/37/29 30/38/30
f 29/37/29 28/36/28 23/25/23
f 29/37/29 23/25/23 31/39/31
f 20/22/20 19/21/19 30/38/30
f 20/22/20 30/38/30 32/40/32
f 31/39/31 23/25/23 22/24/22
f 31/39/31 22/24/22 33/41/33
f 30/38/30 29/37/29 34/42/34
f 30/38/30 34/42/34 35/43/35
f 34/42/34 29/37/29 31/39/31
f 34/42/34 31/39/31 36/44/36
f 32/40/32 30/38/30 35/43/35
f 32/40/32 35/43/35 37/45/37
f 36/44/36 31/39/31 33/41/33
f 36/44/36 33/41/33 38/46/38
f 39/47/39 40/48/40 41/49/41
f 39/47/39 41/49/41 42/50/42
f 43/51/43 44/52/44 39/53/39
f 43/51/43 39/53/39 42/54/42
f 40/48/40 32/40/32 37/45/37
f 40/48/40 37/45/37 41/49/41
f 38/46/38 33/41/33 44/52/44
f 38/46/38 44/52/44 43/51/43
f 42/50/42 41/49/41 45/55/45
f 42/50/42 45/55/45 46/56/46
f 47/57/47 43/51/43 42/54/42
f 47/57/47 42/54/42 46/58/46
f 41/49/41 37/45/37 48/59/48
f 41/49/41 48/59/48 45/55/45
f 49/60/49 38/46/38 43/51/43
f 49/60/49 43/51/43 47/57/47
f 50/61/50 51/62/51 52/63/52
f 50/61/50 52/63/52 53/64/53
f 52/63/52 51/62/51 54/65/54
f 52/63/52 54/65/54 55/66/55
f 45/55/45 56/67/56 57/68/57
f 45/55/45 57/68/57 46/56/46
f 57/69/57 58/70/58 47/57/47
f 57/69/57 47/57/47 46/58/46
f 56/67/56 53/71/53 52/72/52
f 56/67/56 52/72/52 57/68/57
f 52/73/52 55/74/55 58/70/58
f 52/73/52 58/70/58 57/69/57
f 53/64/53 59/75/59 60/76/60
f 53/64/53 60/76/60 50/61/50
f 61/77/61 62/78/62 55/66/55
f 61/77/61 55/66/55 54/65/54
f 56/67/56 63/79/63 59/80/59
f 56/67/56 59/80/59 53/71/53
f 62/81/62 64/82/64 58/70/58
f 62/81/62 58/70/58 55/74/55
f 63/79/63 65/83/65 66/84/65
f 63/79/63 66/84/65 59/80/59
f 67/85/66 68/86/66 64/82/64
f 67/85/66 64/82/64 62/81/62
f 20/22/20 69/87/67 70/88/68
f 20/22/20 70/88/68 21/23/21
f 71/89/69 72/90/70 22/24/22
f 71/89/69 22/24/22 25/27/25
f 21/29/21 70/91/68 73/92/71
f 21/29/21 73/92/71 40/48/40
f 74/93/72 71/94/69 25/33/25
f 74/93/72 25/33/25 44/52/44
f 32/40/32 75/95/73 69/87/67
f 32/40/32 69/87/67 20/22/20
f 72/90/70 76/96/74 33/41/33
f 72/90/70 33/41/33 22/24/22
f 40/48/40 73/92/71 75/95/73
f 40/48/40 75/95/73 32/40/32
f 76/96/74 74/93/72 44/52/44
f 76/96/74 44/52/44 33/41/33
f 35/43/35 34/42/34 77/97/75
f 35/43/35 77/97/75 78/98/76
f 77/97/75 34/42/34 36/44/36
f 77/97/75 36/44/36 79/99/77
f 35/43/35 78/98/76 48/59/48
f 35/43/35 48/59/48 37/45/37
f 49/60/49 79/99/77 36/44/36
f 49/60/49 36/44/36 38/46/38
f 77/97/75 51/62/51 50/61/50
f 77/97/75 50/61/50 78/98/76
f 54/65/54 51/62/51 77/97/75
f 54/65/54 77/97/75 79/99/77
f 50/61/50 60/76/60 80/100/78
f 50/61/50 80/100/78 81/101/79
f 48/59/48 78/98/76 50/61/50
f 48/59/48 50/61/50 81/101/79
f 54/65/54 79/99/77 49/60/49
f 54/65/54 49/60/49 82/102/80
f 48/59/48 81/101/79 56/67/56
f 48/59/48 56/67/56 45/55/45
f 58/70/58 82/102/80 49/60/49
f 58/70/58 49/60/49 47/57/47
f 56/67/56 81/101/79 80/100/78
f 56/67/56 80/100/78 63/79/63
f 83/103/81 84/104/82 85/105/83
f 83/103/81 85/105/83 86/106/84
f 87/107/85 88/108/86 89/109/87
f 87/107/85 89/109/87 90/110/88
f 91/111/89 92/112/90 86/106/84
f 91/111/89 86/106/84 85/105/83
f 90/110/88 92/113/90 91/114/89
f 90/110/88 91/114/89 87/107/85
f 83/103/81 86/106/84 93/115/91
f 83/103/81 93/115/91 94/116/92
f 95/117/93 90/110/88 89/109/87
f 95/117/93 89/109/87 96/118/94
f 93/115/91 86/106/84 92/112/90
f 93/115/91 92/112/90 97/119/95
f 92/113/90 90/110/88 95/117/93
f 92/113/90 95/117/93 97/120/95
f 98/121/96 99/122/97 84/104/82
f 98/121/96 84/104/82 83/103/81
f 88/108/86 99/122/97 98/121/96
f 88/108/86 98/121/96 89/109/87
f 83/103/81 94/116/92 100/123/98
f 83/103/81 100/123/98 98/121/96
f 100/123/98 96/118/94 89/109/87
f 100/123/98 89/109/87 98/121/96
f 18/124/18 27/125/27 91/111/89
f 18/124/18 91/111/89 85/105/83
f 91/114/89 27/126/27 24/127/24
f 91/114/89 24/127/24 87/107/85
f 18/124/18 85/105/83 84/104/82
f 18/124/18 84/104/82 19/128/19
f 88/108/86 87/107/85 24/127/24
f 88/108/86 24/127/24 23/129/23
f 19/128/19 84/104/82 99/122/97
f 19/128/19 99/122/97 28/130/28
f 99/122/97 88/108/86 23/129/23
f 99/122/97 23/129/23 28/130/28
f 100/123/98 94/116/92 101/131/99
f 100/123/98 101/131/99 102/132/100
f 103/133/101 96/118/94 100/123/98
f 103/133/101 100/123/98 104/134/102
f 97/135/95 100/123/98 102/132/100
f 97/135/95 102/132/100 105/136/103
f 104/134/102 100/123/98 97/135/95
f 104/134/102 97/135/95 106/137/104
f 93/115/91 97/119/95 105/138/103
f 93/115/91 105/138/103 107/139/105
f 106/140/104 97/120/95 95/117/93
f 106/140/104 95/117/93 108/141/106
f 94/116/92 93/115/91 107/139/105
f 94/116/92 107/139/105 101/131/99
f 108/141/106 95/117/93 96/118/94
f 108/141/106 96/118/94 103/133/101
f 101/142/99 107/143/105 109/144/107
f 101/142/99 109/144/107 110/145/108
f 111/144/109 108/143/106 103/142/101
f 111/144/109 103/142/101 112/145/110
f 107/143/105 105/146/103 113/147/111
f 107/143/105 113/147/111 109/144/107
f 114/147/112 106/146/104 108/143/106
f 114/147/112 108/143/106 111/144/109
f 105/148/103 102/149/100 115/150/113
f 105/148/103 115/150/113 113/151/111
f 116/150/114 104/149/102 106/148/104
f 116/150/114 106/148/104 114/151/112
f 102/149/100 101/142/99 110/145/108
f 102/149/100 110/145/108 115/150/113
f 112/145/110 103/142/101 104/149/102
f 112/145/110 104/149/102 116/150/114
f 110/145/108 117/152/115 115/150/113
f 116/150/114 118/152/116 112/145/110
f 113/151/111 115/150/113 117/152/115
f 118/152/116 116/150/114 114/151/112
f 109/144/107 113/147/111 117/152/115
f 118/152/116 114/147/112 111/144/109
f 109/144/107 117/152/115 110/145/108
f 112/145/110 118/152/116 111/144/109
f 21/29/21 40/48/40 119/153/117
f 21/29/21 119/153/117 120/154/118
f 121/155/119 44/52/44 25/33/25
f 121/155/119 25/33/25 122/156/120
f 21/29/21 120/154/118 26/30/26
f 26/32/26 122/156/120 25/33/25
f 39/47/39 119/153/117 40/48/40
f 44/52/44 121/155/119 39/53/39
f 26/30/26 120/154/118 119/153/117
f 26/30/26 119/153/117 39/47/39
f 121/155/119 122/156/120 26/32/26
f 121/155/119 26/32/26 39/53/39
f 123/157/121 124/158/122 125/159/123
f 123/157/121 125/159/123 126/160/124
f 124/158/122 127/161/125 128/162/126
f 124/158/122 128/162/126 125/159/123
f 126/160/124 125/159/123 129/163/127
f 126/160/124 129/163/127 130/164/128
f 125/159/123 128/162/126 131/165/129
f 125/159/123 131/165/129 129/163/127
f 132/166/130 133/167/131 134/168/132
f 132/166/130 134/168/132 135/169/133
f 133/167/131 136/170/134 137/171/135
f 133/167/131 137/171/135 134/168/132
f 135/169/133 134/168/132 138/172/136
f 135/169/133 138/172/136 139/173/137
f 134/168/132 137/171/135 140/174/138
f 134/168/132 140/174/138 138/172/136
