# Blender v2.64 (sub 0) OBJ File: ''
# www.blender.org
o Cube_Cube.002
v -1.767705 -4.089914 -0.716019
v -1.697139 -3.914539 0.383582
v -1.518295 -2.885597 0.743929
v -1.890197 -2.681037 -0.883173
v -0.995184 -4.765144 -0.006259
v -1.101842 -4.761194 -0.684528
v -1.044354 -4.308196 -0.749564
v -0.853582 -4.162982 0.184539
v -1.279477 -5.183889 -0.063724
v -1.305041 -5.101379 -0.772534
v -1.937806 -4.549071 -0.630655
v -1.993969 -4.918571 -0.738845
v -1.965232 -4.474423 0.308344
v -1.986789 -4.964696 -0.044976
v -1.526879 -4.138011 0.452570
v -1.692004 -4.539618 0.417602
v -1.690361 -4.860627 0.294616
v -1.217239 -4.697058 0.233163
v -1.156126 -4.267257 0.306627
v -1.406614 -4.953198 0.180812
v -2.545757 -6.766595 0.287761
v -1.460318 -7.030525 0.195432
v -1.318532 -6.928118 -0.862496
v -2.710890 -6.647581 -0.944840
v -2.237073 -9.729474 -1.420727
v -2.092393 -9.699513 -0.522963
v -2.864368 -9.632884 -0.267626
v -2.908856 -9.612967 -1.408614
v -2.665308 -8.787837 -0.447497
v -2.048477 -8.792049 -0.472165
v -2.116261 -8.820055 -1.088645
v -2.787812 -8.831621 -0.995655
v -2.028010 -9.336376 0.995985
v -3.083778 -9.310042 1.039424
v -3.376507 -9.664297 1.264135
v -1.845184 -9.664301 1.075806
vt 0.260781 0.292242
vt 0.310561 0.289241
vt 0.343736 0.320944
vt 0.289792 0.339653
vt 0.319303 0.216740
vt 0.332538 0.194350
vt 0.347501 0.204962
vt 0.342557 0.249082
vt 0.292583 0.192756
vt 0.323965 0.182404
vt 0.227157 0.290423
vt 0.217610 0.275096
vt 0.248209 0.259983
vt 0.213222 0.260242
vt 0.231093 0.238995
vt 0.277440 0.258997
vt 0.257481 0.216299
vt 0.308518 0.268913
vt 0.291305 0.248332
vt 0.277731 0.226935
vt 0.308182 0.229512
vt 0.325193 0.252221
vt 0.290968 0.213514
vt 0.217720 0.154053
vt 0.245924 0.131195
vt 0.278401 0.113066
vt 0.148590 0.210632
vt 0.181194 0.178743
vt 0.092419 0.126110
vt 0.057081 0.123134
vt 0.052916 0.091861
vt 0.098888 0.099991
vt 0.177917 0.086997
vt 0.206501 0.071824
vt 0.234333 0.052397
vt 0.205563 0.041411
vt 0.236212 0.015822
vt 0.121600 0.142644
vt 0.144014 0.116368
vt 0.143613 0.075658
vt 0.157160 0.026017
vt 0.136878 0.032252
vt 0.110157 0.028406
vt 0.160003 0.000000
vt 0.002605 0.062579
vt 0.000000 0.121318
vn -0.903836 0.118076 -0.411206
vn -0.832850 0.215033 0.509995
vn -0.986999 0.010102 0.160253
vn 0.863338 -0.409162 0.295267
vn 0.677114 -0.242225 -0.694845
vn 0.567217 -0.204077 -0.797845
vn 0.827937 -0.139409 0.543168
vn 0.720756 -0.394299 0.570086
vn 0.608417 -0.044679 -0.792352
vn -0.756127 0.217841 -0.617054
vn -0.632191 0.286264 -0.719962
vn -0.848811 0.035524 0.527482
vn -0.829371 -0.031190 0.557787
vn 0.106876 0.110782 0.988067
vn -0.139500 -0.238136 0.961150
vn -0.186132 -0.572924 0.798151
vn 0.433363 -0.350536 0.830226
vn 0.423811 -0.009705 0.905667
vn 0.183782 -0.632954 0.752037
vn -0.607227 0.053255 0.792718
vn 0.664266 -0.214057 0.716147
vn 0.762261 -0.107913 -0.638173
vn -0.752129 0.195288 -0.629383
vn 0.423780 -0.542222 -0.725516
vn 0.682028 -0.727744 -0.071902
vn -0.771172 -0.633168 -0.066103
vn -0.665395 -0.343638 -0.662679
vn -0.830866 0.345378 0.436232
vn 0.915525 0.027772 0.401227
vn 0.668447 0.024812 -0.743339
vn -0.784692 0.257912 -0.563646
vn 0.557268 0.614978 0.557878
vn -0.517563 0.711539 0.475173
vn -0.712912 -0.440748 0.545396
vn 0.711783 -0.506363 0.486740
s 1
f 1/1/1 2/2/2 3/3/3
f 1/1/1 3/3/3 4/4/3
f 5/5/4 6/6/5 7/7/6
f 5/5/4 7/7/6 8/8/7
f 9/9/8 10/10/9 6/6/5
f 9/9/8 6/6/5 5/5/4
f 1/1/1 7/11/6 6/12/5
f 1/1/1 6/12/5 11/13/10
f 10/14/9 12/15/11 11/13/10
f 10/14/9 11/13/10 6/12/5
f 2/2/2 1/1/1 11/13/10
f 2/2/2 11/13/10 13/16/12
f 12/15/11 14/17/13 13/16/12
f 12/15/11 13/16/12 11/13/10
f 15/18/14 2/2/2 13/16/12
f 15/18/14 13/16/12 16/19/15
f 16/19/15 13/16/12 14/17/13
f 16/19/15 14/17/13 17/20/16
f 18/21/17 5/5/4 8/8/7
f 18/21/17 8/8/7 19/22/18
f 20/23/19 9/9/8 5/5/4
f 20/23/19 5/5/4 18/21/17
f 17/20/16 14/17/13 9/9/8
f 17/20/16 9/9/8 20/23/19
f 19/22/18 8/8/7 2/2/2
f 19/22/18 2/2/2 15/18/14
f 16/19/15 18/21/17 19/22/18
f 16/19/15 19/22/18 15/18/14
f 17/20/16 20/23/19 18/21/17
f 17/20/16 18/21/17 16/19/15
f 21/24/20 22/25/21 9/9/8
f 21/24/20 9/9/8 14/17/13
f 22/25/21 23/26/22 10/10/9
f 22/25/21 10/10/9 9/9/8
f 23/27/22 24/28/23 12/15/11
f 23/27/22 12/15/11 10/14/9
f 24/28/23 21/24/20 14/17/13
f 24/28/23 14/17/13 12/15/11
f 25/29/24 26/30/25 27/31/26
f 25/29/24 27/31/26 28/32/27
f 29/33/28 30/34/29 22/25/21
f 29/33/28 22/25/21 21/24/20
f 30/34/29 31/35/30 23/26/22
f 30/34/29 23/26/22 22/25/21
f 26/36/25 25/37/24 31/35/30
f 26/36/25 31/35/30 30/34/29
f 31/38/30 32/39/31 24/28/23
f 31/38/30 24/28/23 23/27/22
f 25/29/24 28/32/27 32/39/31
f 25/29/24 32/39/31 31/38/30
f 32/39/31 29/33/28 21/24/20
f 32/39/31 21/24/20 24/28/23
f 28/32/27 27/40/26 29/33/28
f 28/32/27 29/33/28 32/39/31
f 33/41/32 30/34/29 29/33/28
f 33/41/32 29/33/28 34/42/33
f 34/42/33 29/33/28 27/40/26
f 34/42/33 27/40/26 35/43/34
f 36/44/35 26/36/25 30/34/29
f 36/44/35 30/34/29 33/41/32
f 35/45/34 27/31/26 26/30/25
f 35/45/34 26/30/25 36/46/35
f 35/43/34 36/44/35 33/41/32
f 35/43/34 33/41/32 34/42/33
