# Blender v2.65 (sub 0) OBJ File: 'axe.blend'
# www.blender.org
o axe_Object02
v -0.288703 0.547036 0.676566
v -0.339561 0.555446 0.676566
v -0.347940 0.504772 0.680640
v -0.297082 0.496362 0.680640
v -0.307314 0.434485 -0.110026
v -0.358172 0.442895 -0.110026
v -0.349793 0.493569 -0.114100
v -0.298935 0.485159 -0.114100
v -0.268778 0.564521 0.722484
v -0.352797 0.578414 0.722484
v -0.366643 0.494682 0.729216
v -0.282623 0.480789 0.729216
v -0.322824 0.368251 0.764990
v -0.364834 0.375197 0.764990
v -0.370496 0.340958 0.648770
v -0.370553 0.471036 0.427068
v -0.356707 0.554768 0.420336
v -0.272688 0.540875 0.420336
v -0.286534 0.457143 0.427068
v -0.330016 0.324757 0.530517
v -0.328486 0.334011 0.648770
v -0.372026 0.331704 0.530517
v -0.369424 0.347436 0.410255
v -0.327415 0.340489 0.410255
v -0.373196 0.194054 0.520354
v -0.365874 0.238330 0.355921
v -0.359668 0.275864 0.835523
v -0.371127 0.206565 0.680222
vt 0.940900 0.925800
vt 0.929900 0.925800
vt 0.929400 0.914800
vt 0.940900 0.914900
vt 0.941100 0.745900
vt 0.929900 0.745900
vt 0.918000 0.914800
vt 0.918700 0.745900
vt 0.907000 0.914800
vt 0.907700 0.745800
vt 0.896000 0.914700
vt 0.896700 0.745800
vt 0.930100 0.735000
vt 0.941100 0.735000
vt 0.961400 0.883200
vt 0.988700 0.883200
vt 0.988700 0.910600
vt 0.961400 0.910600
vt 0.968200 0.950000
vt 0.981900 0.950000
vt 0.464700 0.147300
vt 0.422600 0.077500
vt 0.478100 0.090300
vt 0.322400 0.144800
vt 0.464000 0.186900
vt 0.321700 0.184400
vt 0.988700 0.785800
vt 0.961400 0.785800
vt 0.366900 0.076600
vt 0.961400 0.758500
vt 0.988700 0.758500
vt 0.981900 0.719000
vt 0.968200 0.719000
vt 0.311000 0.087400
vt 0.358200 0.012400
vt 0.282500 0.037900
vt 0.975000 0.680400
vt 0.975000 0.988600
vt 0.508400 0.041900
vt 0.433500 0.013700
vn 0.670949 0.518662 0.529862
vn -0.468245 0.707053 0.529862
vn -0.656056 -0.428571 0.621174
vn 0.483139 -0.616962 0.621174
vn 0.468245 -0.707053 -0.529862
vn -0.670949 -0.518662 -0.529862
vn -0.483139 0.616962 -0.621174
vn 0.656056 0.428571 -0.621174
vn -0.727622 0.179205 0.662130
vn 0.746574 -0.064638 0.662130
vn 0.759819 0.044710 0.648579
vn -0.705008 0.286874 0.648549
vn -0.999512 0.010254 0.029115
vn -0.744774 0.075564 -0.662984
vn 0.729453 -0.168279 -0.662954
vn 0.949187 -0.314646 -0.004608
vn 0.949614 -0.311991 0.029084
vn -0.999939 0.007630 -0.004639
vn -0.722007 0.184027 -0.666921
vn 0.742790 -0.058138 -0.666982
vn -0.162664 -0.984283 -0.068636
vn -0.094150 -0.569933 -0.816248
vn -0.071993 -0.435835 0.897122
vn -0.158849 -0.961272 0.225074
s 1
f 1/1/1 2/2/2 3/3/3 4/4/4
f 5/5/5 4/4/4 3/3/3 6/6/6
f 6/6/6 3/3/3 2/7/2 7/8/7
f 1/9/1 8/10/8 7/8/7 2/7/2
f 8/10/8 1/9/1 4/11/4 5/12/5
f 5/5/5 6/6/6 7/13/7 8/14/8
f 9/15/1 10/16/2 11/17/9 12/18/10
f 13/19/11 12/18/10 11/17/9 14/20/12
f 11/21/9 15/22/13 14/23/12
f 16/24/14 11/21/9 10/25/2 17/26/7
f 17/27/7 10/16/2 9/15/1 18/28/8
f 18/26/8 9/25/1 12/21/10 19/24/15
f 20/29/16 19/24/15 12/21/10 21/22/17
f 15/22/13 11/21/9 16/24/14 22/29/18
f 19/30/15 16/31/14 17/27/7 18/28/8
f 23/32/19 16/31/14 19/30/15 24/33/20
f 19/24/15 20/29/16 24/34/20
f 20/29/16 25/35/21 26/36/22 24/34/20
f 26/37/22 23/32/19 24/33/20
f 27/38/23 13/19/11 14/20/12
f 21/22/17 13/23/11 27/39/23 28/40/24
f 23/34/19 22/29/18 16/24/14
f 28/40/24 27/39/23 14/23/12 15/22/13
f 13/23/11 21/22/17 12/21/10
f 23/34/19 26/36/22 25/35/21 22/29/18
f 21/22/17 28/40/24 25/35/21 20/29/16
f 22/29/18 25/35/21 28/40/24 15/22/13
