# Blender v2.65 (sub 0) OBJ File: 'last.blend'
# www.blender.org
o Mesh_objheadusOBJexport
v 0.402656 0.435849 0.097814
v 0.406955 0.417078 -0.092040
v 0.394228 0.524449 -0.102949
v 0.389928 0.543221 0.086929
v 0.250788 0.507300 -0.104497
v 0.263515 0.399928 -0.093612
v 0.259215 0.418699 0.096266
v 0.246488 0.526071 0.085357
v 0.388135 0.554056 0.094005
v 0.256365 0.538553 0.096315
v 0.257102 0.517865 -0.107224
v 0.388872 0.533368 -0.109534
v 0.216094 0.660494 -0.133490
v 0.215284 0.683148 0.089485
v 0.394523 0.702559 0.086610
v 0.212802 0.711256 -0.129534
v 0.212065 0.731944 0.074005
v 0.395334 0.679880 -0.136364
v 0.379019 0.730839 -0.132433
v 0.378282 0.751527 0.071106
v 0.405842 1.669243 -0.051758
vt 0.957500 0.389100
vt 0.957700 0.333600
vt 0.988700 0.334200
vt 0.988500 0.389700
vt 0.988800 0.292100
vt 0.957200 0.292000
vt 0.916100 0.388400
vt 0.916300 0.332900
vt 0.884500 0.388300
vt 0.884700 0.332800
vt 0.842500 0.388200
vt 0.842700 0.332700
vt 0.956800 0.431600
vt 0.988400 0.431700
vt 0.848300 0.551400
vt 0.882700 0.557800
vt 0.871400 0.612100
vt 0.836700 0.604900
vt 0.910000 0.623600
vt 0.922100 0.566600
vt 0.926300 0.521500
vt 0.886800 0.521200
vt 0.923700 0.624100
vt 0.935600 0.569500
vt 0.886900 0.465200
vt 0.881600 0.429500
vt 0.920600 0.417500
vt 0.926400 0.464100
vt 0.940000 0.463300
vt 0.934800 0.416900
vt 0.940000 0.521900
vt 0.967300 0.634100
vt 0.979000 0.580600
vn 0.627827 -0.445112 0.638478
vn 0.653859 -0.558641 -0.510239
vn 0.518632 0.582202 -0.626118
vn 0.492569 0.695761 0.522721
vn -0.627827 0.445112 -0.638478
vn -0.492569 -0.695761 -0.522721
vn -0.518632 -0.582202 0.626118
vn -0.653859 0.558641 0.510239
vn 0.597736 -0.505234 0.622395
vn -0.449080 -0.627552 0.635945
vn -0.449843 -0.749931 -0.484970
vn 0.598743 -0.626453 -0.499008
vn -0.697623 -0.155919 -0.699271
vn -0.699210 0.005951 0.714835
vn 0.705954 0.209906 0.676412
vn -0.640858 0.508225 -0.575304
vn -0.642262 0.618793 0.452254
vn 0.706900 0.053011 -0.705283
vn 0.435438 0.672109 -0.598834
vn 0.436598 0.785028 0.439406
s 1
f 1/1/1 2/2/2 3/3/3 4/4/4
f 5/5/5 3/3/3 2/2/2 6/6/6
f 2/2/2 1/1/1 7/7/7 6/8/6
f 8/9/8 5/10/5 6/8/6 7/7/7
f 4/11/4 3/12/3 5/10/5 8/9/8
f 7/13/7 1/1/1 4/4/4 8/14/8
f 9/15/9 10/16/10 11/17/11 12/18/12
f 13/19/13 11/17/11 10/16/10 14/20/14
f 15/21/15 14/20/14 10/16/10 9/22/9
f 16/23/16 13/19/13 14/20/14 17/24/17
f 12/25/12 11/26/11 13/27/13 18/28/18
f 19/29/19 18/28/18 13/27/13 16/30/16
f 18/28/18 15/21/15 9/22/9 12/25/12
f 17/24/17 14/20/14 15/21/15 20/31/20
f 20/31/20 15/21/15 18/28/18 19/29/19
f 19/32/19 16/23/16 17/24/17 20/33/20
